<?xml version="1.0" encoding="UTF-8"?>
<svg id="Camada_1" xmlns="http://www.w3.org/2000/svg" version="1.1" viewBox="0 0 16 16">
  <!-- Generator: Adobe Illustrator 29.0.0, SVG Export Plug-In . SVG Version: 2.1.0 Build 186)  -->
  <defs>
    <style>
      .st0 {
        fill: #e08d0d;
      }

      .st1 {
        fill: #e2d3bf;
      }
    </style>
  </defs>
  <path class="st0" d="M8.04,4.68l-3.13-2.77c-.27-.27-.6-.48-.96-.6C2.34.77.17,1.89.18,4.24c0,.39,0,.45,0,.74v8.13c0,.93.76,1.69,1.69,1.69h0c.93,0,1.69-.76,1.69-1.69V5.11l2.64,2.5,1.83-2.93Z"/>
  <path class="st0" d="M12.06,1.33c-.36.12-.69.33-.96.6l-2.73,2.62c.64.92,1.28,1.86,1.91,2.82l2.15-2.23v8c0,.93.76,1.69,1.69,1.69h0c.93,0,1.69-.76,1.69-1.69V5c0-.29,0-.36,0-.74.01-2.35-2.17-3.47-3.76-2.93Z"/>
  <path class="st1" d="M8.02,14.68c-1.87,0-3.39-1.48-3.39-3.29,0-.07,0-.13,0-.19,0-.05,0-.09,0-.13,0-.23,0-.92,1.57-3.55.76-1.27,1.52-2.39,1.53-2.4l.29-.43.29.43s.77,1.17,1.52,2.45c1.55,2.66,1.55,3.3,1.55,3.5,0,.04,0,.08,0,.12,0,.05,0,.12,0,.18,0,1.82-1.52,3.29-3.39,3.29ZM8.02,5.96c-1.14,1.72-2.68,4.31-2.68,5.12,0,.07,0,.13,0,.18,0,.05,0,.09,0,.13,0,1.43,1.21,2.6,2.69,2.6s2.69-1.16,2.69-2.6c0-.04,0-.08,0-.13,0-.05,0-.11,0-.18,0-.2-.14-.89-1.46-3.15-.46-.79-.92-1.53-1.21-1.98Z"/>
</svg>